<svg width="216" height="64" viewBox="0 0 216 64" fill="none" xmlns="http://www.w3.org/2000/svg">
<path d="M208 1.28C209.782 1.28 211.492 1.988 212.752 3.24824C214.012 4.50849 214.72 6.21775 214.72 8V56C214.72 57.7823 214.012 59.4915 212.752 60.7518C211.492 62.012 209.782 62.72 208 62.72H8C6.21775 62.72 4.50849 62.012 3.24824 60.7518C1.988 59.4915 1.28 57.7823 1.28 56V8C1.28 6.21775 1.988 4.50849 3.24824 3.24824C4.50849 1.988 6.21775 1.28 8 1.28H208ZM208 0H8C5.87827 0 3.84344 0.842855 2.34315 2.34315C0.842855 3.84344 0 5.87827 0 8V56C0 58.1217 0.842855 60.1566 2.34315 61.6569C3.84344 63.1571 5.87827 64 8 64H208C210.122 64 212.157 63.1571 213.657 61.6569C215.157 60.1566 216 58.1217 216 56V8C216 5.87827 215.157 3.84344 213.657 2.34315C212.157 0.842855 210.122 0 208 0Z" fill="black"/>
<path d="M109.024 34.8C107.68 34.8063 106.369 35.2105 105.255 35.9615C104.141 36.7125 103.274 37.7768 102.764 39.0198C102.255 40.2629 102.125 41.6292 102.391 42.9461C102.657 44.2631 103.307 45.4717 104.259 46.4195C105.211 47.3673 106.423 48.0118 107.741 48.2716C109.059 48.5314 110.425 48.3949 111.666 47.8792C112.906 47.3636 113.966 46.4921 114.712 45.3745C115.458 44.257 115.856 42.9435 115.856 41.6C115.869 40.7007 115.701 39.808 115.362 38.9749C115.023 38.1419 114.519 37.3857 113.882 36.7512C113.245 36.1167 112.486 35.617 111.651 35.2818C110.817 34.9466 109.923 34.7827 109.024 34.8ZM109.024 45.728C108.198 45.7858 107.373 45.5937 106.658 45.1766C105.942 44.7596 105.368 44.1369 105.011 43.3895C104.654 42.6421 104.53 41.8046 104.655 40.9858C104.781 40.1671 105.149 39.4049 105.714 38.7985C106.278 38.192 107.011 37.7693 107.819 37.5852C108.626 37.4012 109.471 37.4644 110.242 37.7665C111.013 38.0687 111.676 38.5959 112.143 39.2795C112.611 39.9632 112.862 40.7717 112.864 41.6C112.89 42.1248 112.81 42.6495 112.63 43.1431C112.45 43.6366 112.173 44.0891 111.815 44.4739C111.457 44.8586 111.025 45.1678 110.546 45.3832C110.067 45.5986 109.549 45.7158 109.024 45.728ZM94.128 34.8C92.7838 34.8032 91.4707 35.2047 90.3545 35.9538C89.2384 36.7029 88.3693 37.766 87.8571 39.0088C87.3448 40.2516 87.2124 41.6184 87.4766 42.9364C87.7408 44.2544 88.3897 45.4645 89.3413 46.4139C90.293 47.3633 91.5046 48.0094 92.8233 48.2705C94.1419 48.5316 95.5083 48.396 96.7499 47.8808C97.9915 47.3657 99.0526 46.4941 99.7991 45.3762C100.546 44.2583 100.944 42.9442 100.944 41.6C100.957 40.7007 100.789 39.808 100.45 38.9749C100.111 38.1419 99.6075 37.3857 98.97 36.7512C98.3326 36.1167 97.574 35.617 96.7394 35.2818C95.9048 34.9466 95.0112 34.7827 94.112 34.8H94.128ZM94.128 45.728C93.3013 45.789 92.4754 45.5998 91.7578 45.1849C91.0402 44.77 90.4641 44.1486 90.1046 43.4017C89.745 42.6549 89.6187 41.817 89.7419 40.9973C89.8652 40.1776 90.2324 39.414 90.7957 38.8059C91.359 38.1978 92.0924 37.7734 92.9003 37.5879C93.7082 37.4024 94.5532 37.4644 95.3254 37.7659C96.0975 38.0674 96.761 38.5943 97.2295 39.2782C97.698 39.962 97.9498 40.7711 97.952 41.6C97.9778 42.1248 97.8982 42.6495 97.718 43.1431C97.5378 43.6366 97.2605 44.0891 96.9026 44.4739C96.5447 44.8586 96.1134 45.1678 95.6342 45.3832C95.1549 45.5986 94.6373 45.7158 94.112 45.728H94.128ZM76.384 36.896V39.776H83.296C83.1876 41.1325 82.6238 42.4125 81.696 43.408C81.0045 44.1124 80.1732 44.6642 79.2556 45.0279C78.3379 45.3917 77.3543 45.5593 76.368 45.52C74.3311 45.52 72.3777 44.7108 70.9374 43.2706C69.4972 41.8303 68.688 39.8769 68.688 37.84C68.688 35.8031 69.4972 33.8497 70.9374 32.4094C72.3777 30.9691 74.3311 30.16 76.368 30.16C78.3165 30.1282 80.198 30.8705 81.6 32.224L83.632 30.192C82.6856 29.2336 81.5564 28.475 80.3114 27.9611C79.0664 27.4471 77.7309 27.1883 76.384 27.2C74.9616 27.1446 73.5427 27.377 72.2122 27.8831C70.8818 28.3893 69.6672 29.1588 68.6412 30.1456C67.6153 31.1324 66.7991 32.3161 66.2416 33.6259C65.6841 34.9357 65.3967 36.3445 65.3967 37.768C65.3967 39.1915 65.6841 40.6003 66.2416 41.9101C66.7991 43.2198 67.6153 44.4036 68.6412 45.3904C69.6672 46.3772 70.8818 47.1467 72.2122 47.6528C73.5427 48.159 74.9616 48.3913 76.384 48.336C77.7535 48.3979 79.1204 48.1657 80.3927 47.6551C81.665 47.1446 82.8132 46.3674 83.76 45.376C85.4363 43.5343 86.3313 41.1132 86.256 38.624C86.2612 38.0176 86.2076 37.4121 86.096 36.816L76.384 36.896ZM148.88 39.136C148.463 37.9084 147.682 36.8364 146.642 36.0621C145.602 35.2878 144.352 34.8477 143.056 34.8C142.181 34.7983 141.315 34.9761 140.511 35.3224C139.707 35.6688 138.983 36.1763 138.383 36.8136C137.783 37.451 137.32 38.2045 137.023 39.0278C136.726 39.8511 136.601 40.7265 136.656 41.6C136.637 42.4942 136.798 43.3833 137.129 44.2139C137.461 45.0445 137.957 45.7998 138.587 46.4345C139.218 47.0692 139.969 47.5704 140.798 47.9081C141.626 48.2458 142.514 48.4131 143.408 48.4C144.527 48.406 145.63 48.1344 146.619 47.6094C147.607 47.0845 148.45 46.3226 149.072 45.392L146.752 43.792C146.406 44.3692 145.916 44.8467 145.329 45.1777C144.743 45.5086 144.081 45.6817 143.408 45.68C142.715 45.7064 142.03 45.5237 141.442 45.1556C140.854 44.7875 140.391 44.251 140.112 43.616L149.216 39.856L148.88 39.136ZM139.6 41.408C139.568 40.9131 139.634 40.4167 139.796 39.9479C139.958 39.4791 140.212 39.0473 140.542 38.6777C140.873 38.3082 141.274 38.0084 141.722 37.7959C142.171 37.5833 142.657 37.4623 143.152 37.44C143.668 37.406 144.183 37.5243 144.632 37.7803C145.082 38.0363 145.446 38.4187 145.68 38.88L139.6 41.408ZM132.208 48H135.2V28H132.208V48ZM127.312 36.32H127.2C126.749 35.8158 126.197 35.4127 125.579 35.1369C124.961 34.8612 124.292 34.7191 123.616 34.72C121.868 34.8048 120.219 35.5591 119.011 36.8265C117.804 38.094 117.13 39.7774 117.13 41.528C117.13 43.2786 117.804 44.962 119.011 46.2295C120.219 47.4969 121.868 48.2512 123.616 48.336C124.294 48.3474 124.966 48.21 125.586 47.9336C126.205 47.6572 126.756 47.2484 127.2 46.736H127.296V47.712C127.296 50.32 125.904 51.712 123.664 51.712C122.918 51.6945 122.194 51.4555 121.584 51.0252C120.974 50.595 120.507 49.993 120.24 49.296L117.632 50.384C118.123 51.5782 118.959 52.5985 120.034 53.314C121.109 54.0295 122.373 54.4077 123.664 54.4C127.168 54.4 130.064 52.336 130.064 47.312V35.2H127.312V36.32ZM123.888 45.728C122.856 45.637 121.895 45.1628 121.196 44.3987C120.496 43.6346 120.108 42.6361 120.108 41.6C120.108 40.5639 120.496 39.5654 121.196 38.8013C121.895 38.0372 122.856 37.5629 123.888 37.472C124.4 37.4982 124.901 37.6267 125.362 37.8496C125.824 38.0726 126.236 38.3857 126.574 38.7704C126.913 39.1551 127.171 39.6036 127.333 40.0896C127.496 40.5755 127.559 41.0891 127.52 41.6C127.564 42.1131 127.503 42.6297 127.341 43.1186C127.179 43.6075 126.92 44.0586 126.579 44.4444C126.238 44.8303 125.822 45.143 125.357 45.3636C124.892 45.5843 124.387 45.7082 123.872 45.728H123.888ZM162.896 28H155.744V48H158.736V40.416H162.912C163.765 40.4772 164.621 40.3622 165.427 40.078C166.234 39.7937 166.973 39.3464 167.598 38.764C168.224 38.1815 168.723 37.4764 169.065 36.6925C169.406 35.9087 169.582 35.0629 169.582 34.208C169.582 33.3531 169.406 32.5073 169.065 31.7235C168.723 30.9396 168.224 30.2345 167.598 29.652C166.973 29.0695 166.234 28.6223 165.427 28.338C164.621 28.0538 163.765 27.9387 162.912 28H162.896ZM162.896 37.6H158.72V30.784H162.96C163.87 30.784 164.743 31.1456 165.387 31.7892C166.03 32.4328 166.392 33.3058 166.392 34.216C166.392 35.1262 166.03 35.9992 165.387 36.6428C164.743 37.2864 163.87 37.648 162.96 37.648L162.896 37.6ZM181.344 34.72C180.255 34.6549 179.17 34.9094 178.224 35.4523C177.277 35.9953 176.51 36.8029 176.016 37.776L178.672 38.88C178.934 38.3973 179.33 38.0013 179.813 37.7399C180.296 37.4786 180.845 37.3632 181.392 37.408C181.772 37.3636 182.157 37.3953 182.524 37.5013C182.892 37.6073 183.234 37.7853 183.532 38.0251C183.83 38.2649 184.077 38.5616 184.259 38.8979C184.441 39.2343 184.554 39.6035 184.592 39.984V40.192C183.631 39.6832 182.559 39.4194 181.472 39.424C178.608 39.424 175.712 41.024 175.712 43.92C175.74 44.5375 175.892 45.1431 176.158 45.7009C176.425 46.2587 176.8 46.7575 177.263 47.1677C177.725 47.5779 178.265 47.8912 178.851 48.0891C179.436 48.2871 180.056 48.3656 180.672 48.32C181.425 48.3741 182.18 48.2244 182.855 47.8865C183.531 47.5487 184.103 47.0352 184.512 46.4H184.608V48H187.488V40.304C187.488 36.8 184.832 34.768 181.424 34.768L181.344 34.72ZM180.976 45.68C180 45.68 178.64 45.184 178.64 43.984C178.64 42.384 180.336 41.856 181.84 41.856C182.79 41.8325 183.73 42.0646 184.56 42.528C184.46 43.3942 184.05 44.1951 183.406 44.7832C182.762 45.3712 181.928 45.7067 181.056 45.728L180.976 45.68ZM197.984 35.2L194.56 43.872H194.464L190.912 35.2H187.712L193.04 47.328L190 54.064H193.12L201.312 35.2H197.984ZM171.088 48H174.08V28H171.088V48Z" fill="black"/>
<path d="M75.7722 16.484C75.7994 17.0708 75.707 17.6571 75.5007 18.2072C75.2945 18.7573 74.9785 19.2597 74.5722 19.684C74.1184 20.1553 73.5704 20.5258 72.9639 20.7711C72.3574 21.0165 71.706 21.1313 71.0522 21.108C70.0601 21.1002 69.0925 20.7999 68.2704 20.2445C67.4483 19.6892 66.8084 18.9036 66.4309 17.9862C66.0533 17.0688 65.9549 16.0604 66.148 15.0873C66.341 14.1142 66.817 13.2198 67.5162 12.516C67.9757 12.0468 68.5266 11.677 69.1348 11.4293C69.743 11.1816 70.3956 11.0614 71.0522 11.076C71.7286 11.0737 72.3983 11.2099 73.0202 11.476C73.5991 11.7095 74.1145 12.0769 74.5242 12.548L73.6762 13.396C73.3568 13.0161 72.9535 12.7158 72.4981 12.5186C72.0427 12.3214 71.5477 12.2329 71.0522 12.26C70.5524 12.2575 70.0573 12.356 69.5965 12.5496C69.1357 12.7431 68.7187 13.0277 68.3706 13.3863C68.0225 13.7449 67.7504 14.1701 67.5705 14.6364C67.3907 15.1027 67.3069 15.6005 67.3242 16.1C67.3137 16.8458 67.5243 17.578 67.9295 18.2043C68.3347 18.8305 68.9163 19.3227 69.6009 19.6188C70.2855 19.9149 71.0424 20.0016 71.7762 19.868C72.5101 19.7343 73.1879 19.3864 73.7242 18.868C74.2165 18.3344 74.5005 17.6416 74.5242 16.916H71.0522V15.764H75.7082C75.7508 16.0016 75.7723 16.2426 75.7722 16.484ZM83.1002 12.484H78.7802V15.524H82.7162V16.676H78.7802V19.716H83.1002V20.9H77.5002V11.3H83.1002V12.484ZM88.3482 20.9H87.1162V12.484H84.4282V11.3H91.1002V12.484H88.3482V20.9ZM95.8042 20.9V11.3H97.0362V20.9H95.8042ZM102.508 20.9H101.276V12.484H98.5882V11.3H105.18V12.484H102.508V20.9ZM117.676 19.652C116.741 20.5821 115.475 21.1043 114.156 21.1043C112.837 21.1043 111.572 20.5821 110.636 19.652C109.727 18.6896 109.22 17.4159 109.22 16.092C109.22 14.7681 109.727 13.4943 110.636 12.532C111.097 12.0676 111.646 11.699 112.25 11.4475C112.854 11.1959 113.502 11.0664 114.156 11.0664C114.811 11.0664 115.458 11.1959 116.063 11.4475C116.667 11.699 117.215 12.0676 117.676 12.532C118.589 13.4925 119.098 14.7669 119.098 16.092C119.098 17.417 118.589 18.6915 117.676 19.652ZM111.548 18.852C112.241 19.5418 113.179 19.9291 114.156 19.9291C115.134 19.9291 116.071 19.5418 116.764 18.852C117.448 18.0984 117.826 17.1174 117.826 16.1C117.826 15.0826 117.448 14.1016 116.764 13.348C116.071 12.6582 115.134 12.2709 114.156 12.2709C113.179 12.2709 112.241 12.6582 111.548 13.348C110.865 14.1016 110.486 15.0826 110.486 16.1C110.486 17.1174 110.865 18.0984 111.548 18.852ZM120.828 20.9V11.3H122.332L127.004 18.772V11.3H128.236V20.9H126.956L122.076 13.076V20.9H120.828Z" fill="black"/>
<path fill-rule="evenodd" clip-rule="evenodd" d="M114.156 11.2264C113.523 11.2264 112.896 11.3517 112.311 11.5952C111.727 11.8383 111.197 12.1945 110.751 12.6433C109.871 13.5758 109.38 14.8096 109.38 16.092C109.38 17.3742 109.871 18.6079 110.751 19.5403C111.656 20.4395 112.88 20.9443 114.156 20.9443C115.432 20.9443 116.657 20.4395 117.562 19.5401C118.445 18.6095 118.938 17.3752 118.938 16.092C118.938 14.8086 118.445 13.5741 117.561 12.6435C117.116 12.1946 116.585 11.8384 116.001 11.5952C115.416 11.3517 114.789 11.2264 114.156 11.2264ZM112.188 11.2997C112.812 11.0401 113.481 10.9064 114.156 10.9064C114.832 10.9064 115.5 11.0401 116.124 11.2997C116.748 11.5594 117.314 11.9399 117.79 12.4193L117.792 12.4217C118.733 13.412 119.258 14.7259 119.258 16.092C119.258 17.4581 118.733 18.7719 117.792 19.7622L117.789 19.7655C116.824 20.7254 115.518 21.2643 114.156 21.2643C112.795 21.2643 111.489 20.7254 110.523 19.7654L110.52 19.7619C109.583 18.7698 109.06 17.4567 109.06 16.092C109.06 14.7272 109.583 13.4142 110.52 12.4221L110.523 12.4192C110.998 11.9398 111.565 11.5594 112.188 11.2997ZM71.0486 11.2359C70.4139 11.2218 69.7831 11.338 69.1952 11.5775C68.6072 11.8169 68.0747 12.1744 67.6305 12.6279L67.6297 12.6288C66.9527 13.3102 66.4918 14.1763 66.3049 15.1185C66.118 16.0607 66.2133 17.0371 66.5788 17.9253C66.9444 18.8136 67.564 19.5743 68.36 20.112C69.1559 20.6496 70.0929 20.9405 71.0534 20.948L71.0579 20.948C71.6892 20.9705 72.3182 20.8597 72.9039 20.6228C73.4895 20.3859 74.0186 20.0283 74.4567 19.5732C74.8481 19.1646 75.1523 18.6807 75.3509 18.151C75.5496 17.6212 75.6385 17.0566 75.6123 16.4914L75.7722 16.484L75.6122 16.4839C75.6122 16.2965 75.5988 16.1094 75.572 15.924H71.2122V16.756H74.6895L74.6841 16.9212C74.6591 17.6852 74.3601 18.4147 73.8417 18.9765L73.8355 18.9832C73.2765 19.5236 72.5698 19.8861 71.8049 20.0254C71.04 20.1647 70.251 20.0743 69.5373 19.7656C68.8237 19.457 68.2175 18.9439 67.7952 18.2912C67.3735 17.6395 67.154 16.8777 67.1641 16.1016C67.1467 15.5819 67.2342 15.064 67.4213 14.5788C67.6088 14.0924 67.8927 13.6489 68.2558 13.2748C68.619 12.9008 69.0539 12.6039 69.5345 12.402C70.0137 12.2008 70.5285 12.0981 71.0482 12.1C71.5669 12.0724 72.0849 12.1654 72.5617 12.3718C72.9865 12.5557 73.3682 12.8252 73.6832 13.1627L74.3034 12.5424C73.9278 12.1433 73.4697 11.8298 72.9603 11.6244L72.9572 11.6231C72.3554 11.3656 71.7073 11.2338 71.0527 11.236L71.0486 11.2359ZM75.9322 16.4803C75.9598 17.0876 75.864 17.6942 75.6505 18.2634C75.4367 18.8338 75.1091 19.3547 74.6877 19.7947C74.2184 20.2822 73.6513 20.6656 73.0239 20.9194C72.3973 21.173 71.7243 21.2917 71.0487 21.268C70.0259 21.2595 69.0284 20.9497 68.1808 20.3771C67.3327 19.8042 66.6724 18.9937 66.2829 18.0471C65.8934 17.1006 65.7918 16.0602 65.991 15.0562C66.1902 14.0524 66.6811 13.1297 67.4023 12.4036C67.877 11.919 68.4462 11.537 69.0745 11.2811C69.7023 11.0254 70.3759 10.9012 71.0537 10.916C71.7507 10.9139 72.4407 11.0542 73.0816 11.3282C73.6833 11.5712 74.2191 11.9532 74.6449 12.443L74.7428 12.5556L73.6659 13.6325L73.5537 13.4989C73.2503 13.1381 72.8672 12.8527 72.4345 12.6654C72.0019 12.4781 71.5316 12.394 71.0609 12.4197L71.0514 12.4203C70.5731 12.4179 70.0994 12.5119 69.6584 12.6971C69.2175 12.8823 68.8185 13.1546 68.4854 13.4977C68.1523 13.8409 67.8919 14.2477 67.7198 14.6939C67.5478 15.1402 67.4676 15.6165 67.4841 16.0945L67.4843 16.1022C67.4743 16.8164 67.6758 17.5176 68.0638 18.1173C68.4518 18.717 69.0088 19.1884 69.6644 19.4719C70.32 19.7555 71.0448 19.8385 71.7476 19.7106C72.4488 19.5829 73.0966 19.2508 73.6097 18.7561C74.0366 18.292 74.2974 17.7011 74.3541 17.076H70.8922V15.604H75.842L75.8656 15.7357C75.9098 15.9815 75.932 16.2306 75.9322 16.4803ZM77.3402 11.14H83.2602V12.644H78.9402V15.364H82.8762V16.836H78.9402V19.556H83.2602V21.06H77.3402V11.14ZM77.6602 11.46V20.74H82.9402V19.876H78.6202V16.516H82.5562V15.684H78.6202V12.324H82.9402V11.46H77.6602ZM84.2682 11.14H91.2602V12.644H88.5082V21.06H86.9562V12.644H84.2682V11.14ZM84.5882 11.46V12.324H87.2762V20.74H88.1882V12.324H90.9402V11.46H84.5882ZM95.6442 11.14H97.1962V21.06H95.6442V11.14ZM95.9642 11.46V20.74H96.8762V11.46H95.9642ZM98.4282 11.14H105.34V12.644H102.668V21.06H101.116V12.644H98.4282V11.14ZM98.7482 11.46V12.324H101.436V20.74H102.348V12.324H105.02V11.46H98.7482ZM120.668 11.14H122.421L126.844 18.2143V11.14H128.396V21.06H126.867L122.236 13.6348V21.06H120.668V11.14ZM120.988 11.46V20.74H121.916V12.5171L127.045 20.74H128.076V11.46H127.164V19.3297L122.243 11.46H120.988ZM111.435 13.2346C112.158 12.515 113.136 12.1109 114.156 12.1109C115.176 12.1109 116.154 12.515 116.877 13.2346L116.883 13.2403C117.593 14.0233 117.986 15.0428 117.986 16.1C117.986 17.1571 117.593 18.1765 116.883 18.9595L116.877 18.9655C116.155 19.6852 115.176 20.0891 114.156 20.0891C113.136 20.0891 112.158 19.685 111.435 18.9654L111.548 18.852L111.43 18.9595C110.719 18.1765 110.326 17.1571 110.326 16.1C110.326 15.0428 110.719 14.0235 111.43 13.2405L111.435 13.2346ZM111.664 18.7415C112.326 19.3996 113.222 19.7691 114.156 19.7691C115.09 19.7691 115.986 19.3996 116.648 18.7415C117.304 18.0177 117.666 17.0763 117.666 16.1C117.666 15.1236 117.304 14.1822 116.648 13.4585C115.986 12.8003 115.09 12.4309 114.156 12.4309C113.222 12.4309 112.326 12.8003 111.664 13.4585C111.009 14.1822 110.646 15.1236 110.646 16.1C110.646 17.0763 111.009 18.0177 111.664 18.7415Z" fill="black"/>
<path d="M16.7925 52.3175L36.3935 31.9875L16.809 11.6939C16.2859 12.0099 15.9622 12.7414 15.9622 13.699V50.3319C15.9692 51.2894 16.2812 51.9675 16.7925 52.3175Z" fill="black"/>
<path d="M37.0957 31.426L42.9342 25.3696L19.1579 11.847C18.7575 11.6057 18.3028 11.4783 17.8396 11.4776L37.0934 31.4236L37.0957 31.426Z" fill="black"/>
<path d="M37.0955 32.5513L17.7808 52.5849C18.2655 52.5932 18.743 52.462 19.1601 52.2057L42.9833 38.6467L37.0955 32.5513Z" fill="black"/>
<path d="M51.5476 30.2765L43.6355 25.7682L37.6375 31.9899L43.68 38.2506L51.5453 33.7544C53.2178 32.7992 53.2177 31.2268 51.5476 30.2765Z" fill="black"/>
</svg>
